<svg version="1.1" xmlns="http://www.w3.org/2000/svg" xmlns:xlink="http://www.w3.org/1999/xlink" x="0px" y="0px" width="12.1px"
	 height="11.6px" viewBox="0 0 12.1 11.6" enable-background="new 0 0 12.1 11.6" xml:space="preserve">
<g id="spiral">
	<path fill="none" stroke="#000000" d="M23.6,25c0,5.5-4.5,10-10,10c-4.4,0-8-3.6-8-8c0-3.5,2.9-6.4,6.4-6.4c2.8,0,5.1,2.3,5.1,5.1
		c0,2.3-1.8,4.1-4.1,4.1c-1.8,0-3.3-1.5-3.3-3.3c0-1.4,1.2-2.6,2.6-2.6c1.2,0,2.1,0.9,2.1,2.1c0,0.9-0.8,1.7-1.7,1.7
		c-0.7,0-1.3-0.6-1.3-1.3"/>
</g>
</svg>
